<svg width="122" height="118" viewBox="0 0 122 118" fill="none" xmlns="http://www.w3.org/2000/svg">
<path d="M51.7143 75.4102L20 20.6607L35.753 33.3022L55.8892 68.1791L51.7143 75.4102Z" fill="#5E47FF"/>
<path d="M81.4848 42.2628L49.9274 97.1029L52.9988 77.1397L73.135 42.2628L81.4848 42.2628Z" fill="#5E47FF"/>
<path d="M38.077 33.401L101.349 33.3104L82.5243 40.6321H42.2519L38.077 33.401Z" fill="#5E47FF"/>
<path d="M51.7143 75.4102L20 20.6607L35.753 33.3022L55.8892 68.1791L51.7143 75.4102Z" fill="#5E47FF"/>
<path d="M81.4848 42.2628L49.9274 97.1029L52.9988 77.1397L73.135 42.2628L81.4848 42.2628Z" fill="#5E47FF"/>
<g filter="url(#filter0_f_137_9701)">
<path d="M38.077 33.401L101.349 33.3104L82.5243 40.6321H42.2519L38.077 33.401Z" fill="#5E47FF"/>
</g>
<path d="M57.027 64.0466L68.9552 43.3864H45.0988L57.027 64.0466Z" fill="#57E1FF"/>
<g filter="url(#filter1_f_137_9701)">
<path d="M51.7143 75.4102L20 20.6607L35.753 33.3022L55.8892 68.1791L51.7143 75.4102Z" fill="#5E47FF"/>
</g>
<g filter="url(#filter2_f_137_9701)">
<path d="M81.4848 42.2628L49.9274 97.1029L52.9988 77.1397L73.135 42.2628L81.4848 42.2628Z" fill="#5E47FF"/>
</g>
<path d="M38.077 33.401L101.349 33.3104L82.5243 40.6321H42.2519L38.077 33.401Z" fill="#5E47FF"/>
<defs>
<filter id="filter0_f_137_9701" x="18.077" y="13.3103" width="103.272" height="47.3218" filterUnits="userSpaceOnUse" color-interpolation-filters="sRGB">
<feFlood flood-opacity="0" result="BackgroundImageFix"/>
<feBlend mode="normal" in="SourceGraphic" in2="BackgroundImageFix" result="shape"/>
<feGaussianBlur stdDeviation="10" result="effect1_foregroundBlur_137_9701"/>
</filter>
<filter id="filter1_f_137_9701" x="0" y="0.660645" width="75.8892" height="94.7495" filterUnits="userSpaceOnUse" color-interpolation-filters="sRGB">
<feFlood flood-opacity="0" result="BackgroundImageFix"/>
<feBlend mode="normal" in="SourceGraphic" in2="BackgroundImageFix" result="shape"/>
<feGaussianBlur stdDeviation="10" result="effect1_foregroundBlur_137_9701"/>
</filter>
<filter id="filter2_f_137_9701" x="29.9274" y="22.2627" width="71.5574" height="94.8403" filterUnits="userSpaceOnUse" color-interpolation-filters="sRGB">
<feFlood flood-opacity="0" result="BackgroundImageFix"/>
<feBlend mode="normal" in="SourceGraphic" in2="BackgroundImageFix" result="shape"/>
<feGaussianBlur stdDeviation="10" result="effect1_foregroundBlur_137_9701"/>
</filter>
</defs>
</svg>
