<svg width="300" height="134" viewBox="0 0 300 134" fill="none" xmlns="http://www.w3.org/2000/svg">
<g clip-path="url(#clip0_185_208)">
<g clip-path="url(#clip1_185_208)">
<rect opacity="0.7" x="0.5" y="0.5" width="175" height="103" rx="3.5" stroke="#6A54FF" stroke-dasharray="8 8"/>
<path opacity="0.7" d="M11.72 28V14.04H20.66V16.04H13.98V19.92H20.04V21.92H13.98V26H20.66V28H11.72ZM27.9555 16.04V28H25.6955V16.04H21.5355V14.04H32.1155V16.04H27.9555ZM42.0984 21.92H35.7784V28H33.5184V14.04H35.7784V19.92H42.0984V14.04H44.3584V28H42.0984V21.92ZM45.4158 31.02L50.9558 13.2H52.8358L47.2958 31.02H45.4158ZM56.6756 14.04V22.64C56.6756 23.8267 56.9023 24.72 57.3556 25.32C57.809 25.92 58.5823 26.22 59.6756 26.22C60.769 26.22 61.5423 25.92 61.9956 25.32C62.449 24.72 62.6756 23.8267 62.6756 22.64V14.04H64.8956V22.28C64.8956 23.3067 64.8023 24.1933 64.6156 24.94C64.429 25.6867 64.129 26.3067 63.7156 26.8C63.3023 27.28 62.7623 27.64 62.0956 27.88C61.4423 28.12 60.6356 28.24 59.6756 28.24C58.7156 28.24 57.9023 28.12 57.2356 27.88C56.5823 27.64 56.049 27.28 55.6356 26.8C55.2223 26.3067 54.9223 25.6867 54.7356 24.94C54.549 24.1933 54.4556 23.3067 54.4556 22.28V14.04H56.6756ZM71.6266 28.24C70.4532 28.24 69.4532 28.0267 68.6266 27.6C67.8132 27.1733 67.1132 26.6 66.5266 25.88L68.0866 24.42C68.5799 25.02 69.1199 25.4733 69.7066 25.78C70.3066 26.0867 70.9866 26.24 71.7466 26.24C72.6399 26.24 73.3132 26.04 73.7666 25.64C74.2199 25.24 74.4466 24.7 74.4466 24.02C74.4466 23.4733 74.2866 23.04 73.9666 22.72C73.6466 22.4 73.0799 22.16 72.2666 22L71.0266 21.78C69.6666 21.5267 68.6466 21.08 67.9666 20.44C67.2866 19.8 66.9466 18.92 66.9466 17.8C66.9466 17.1867 67.0599 16.6333 67.2866 16.14C67.5266 15.6333 67.8532 15.2133 68.2666 14.88C68.6932 14.5333 69.2066 14.2667 69.8066 14.08C70.4066 13.8933 71.0799 13.8 71.8266 13.8C72.8799 13.8 73.7932 13.9867 74.5666 14.36C75.3399 14.72 75.9999 15.2467 76.5466 15.94L74.9666 17.34C74.6066 16.8733 74.1666 16.5 73.6466 16.22C73.1266 15.94 72.4799 15.8 71.7066 15.8C70.9066 15.8 70.2866 15.96 69.8466 16.28C69.4066 16.6 69.1866 17.0667 69.1866 17.68C69.1866 18.2667 69.3666 18.7067 69.7266 19C70.0866 19.28 70.6466 19.4933 71.4066 19.64L72.6466 19.9C74.0466 20.1667 75.0666 20.62 75.7066 21.26C76.3599 21.9 76.6866 22.78 76.6866 23.9C76.6866 24.5533 76.5732 25.1467 76.3466 25.68C76.1199 26.2133 75.7866 26.6733 75.3466 27.06C74.9199 27.4333 74.3932 27.7267 73.7666 27.94C73.1399 28.14 72.4266 28.24 71.6266 28.24ZM78.5997 14.04H83.5397C84.433 14.04 85.2397 14.1867 85.9597 14.48C86.693 14.7733 87.313 15.2133 87.8197 15.8C88.3397 16.3733 88.7397 17.1 89.0197 17.98C89.2997 18.8467 89.4397 19.86 89.4397 21.02C89.4397 22.18 89.2997 23.2 89.0197 24.08C88.7397 24.9467 88.3397 25.6733 87.8197 26.26C87.313 26.8333 86.693 27.2667 85.9597 27.56C85.2397 27.8533 84.433 28 83.5397 28H78.5997V14.04ZM83.5397 26C84.5797 26 85.4197 25.6733 86.0597 25.02C86.6997 24.3667 87.0197 23.4067 87.0197 22.14V19.9C87.0197 18.6333 86.6997 17.6733 86.0597 17.02C85.4197 16.3667 84.5797 16.04 83.5397 16.04H80.8597V26H83.5397ZM96.1047 16.04V28H93.8447V16.04H89.6847V14.04H100.265V16.04H96.1047Z" fill="#6A54FF"/>
<path opacity="0.7" d="M13.757 47.156C13.0203 47.156 12.392 47.0173 11.872 46.74C11.352 46.454 10.91 46.064 10.546 45.57L11.352 44.894C11.6727 45.3187 12.028 45.6437 12.418 45.869C12.808 46.0857 13.2673 46.194 13.796 46.194C14.446 46.194 14.94 46.038 15.278 45.726C15.6247 45.414 15.798 44.998 15.798 44.478C15.798 44.0447 15.668 43.711 15.408 43.477C15.148 43.243 14.719 43.0567 14.121 42.918L13.38 42.749C12.548 42.5583 11.911 42.2723 11.469 41.891C11.0357 41.501 10.819 40.955 10.819 40.253C10.819 39.8543 10.8927 39.499 11.04 39.187C11.1873 38.875 11.391 38.615 11.651 38.407C11.9197 38.199 12.236 38.043 12.6 37.939C12.9727 37.8263 13.38 37.77 13.822 37.77C14.5067 37.77 15.0917 37.8957 15.577 38.147C16.071 38.3983 16.487 38.7667 16.825 39.252L16.006 39.85C15.7547 39.5033 15.4513 39.2303 15.096 39.031C14.7407 38.8317 14.2987 38.732 13.77 38.732C13.1893 38.732 12.73 38.8577 12.392 39.109C12.0627 39.3517 11.898 39.72 11.898 40.214C11.898 40.6473 12.0367 40.9767 12.314 41.202C12.6 41.4187 13.029 41.592 13.601 41.722L14.342 41.891C15.2347 42.0903 15.8803 42.3937 16.279 42.801C16.6777 43.2083 16.877 43.75 16.877 44.426C16.877 44.842 16.8033 45.219 16.656 45.557C16.5173 45.895 16.3137 46.181 16.045 46.415C15.7763 46.649 15.447 46.831 15.057 46.961C14.6757 47.091 14.2423 47.156 13.757 47.156ZM18.6587 37.38H19.6987V41.384H19.7507C19.9154 41.0027 20.145 40.6993 20.4397 40.474C20.743 40.2487 21.146 40.136 21.6487 40.136C22.342 40.136 22.888 40.3613 23.2867 40.812C23.694 41.254 23.8977 41.8823 23.8977 42.697V47H22.8577V42.879C22.8577 41.6743 22.3507 41.072 21.3367 41.072C21.1287 41.072 20.925 41.098 20.7257 41.15C20.535 41.202 20.3617 41.28 20.2057 41.384C20.0497 41.488 19.924 41.6223 19.8287 41.787C19.742 41.943 19.6987 42.1293 19.6987 42.346V47H18.6587V37.38ZM28.5824 47.156C28.1317 47.156 27.72 47.0737 27.3474 46.909C26.9747 46.7443 26.654 46.5103 26.3854 46.207C26.1254 45.895 25.9217 45.5267 25.7744 45.102C25.627 44.6687 25.5534 44.1833 25.5534 43.646C25.5534 43.1173 25.627 42.6363 25.7744 42.203C25.9217 41.7697 26.1254 41.4013 26.3854 41.098C26.654 40.786 26.9747 40.5477 27.3474 40.383C27.72 40.2183 28.1317 40.136 28.5824 40.136C29.033 40.136 29.4404 40.2183 29.8044 40.383C30.177 40.5477 30.4977 40.786 30.7664 41.098C31.035 41.4013 31.243 41.7697 31.3904 42.203C31.5377 42.6363 31.6114 43.1173 31.6114 43.646C31.6114 44.1833 31.5377 44.6687 31.3904 45.102C31.243 45.5267 31.035 45.895 30.7664 46.207C30.4977 46.5103 30.177 46.7443 29.8044 46.909C29.4404 47.0737 29.033 47.156 28.5824 47.156ZM28.5824 46.233C29.1457 46.233 29.605 46.0597 29.9604 45.713C30.3157 45.3663 30.4934 44.8377 30.4934 44.127V43.165C30.4934 42.4543 30.3157 41.9257 29.9604 41.579C29.605 41.2323 29.1457 41.059 28.5824 41.059C28.019 41.059 27.5597 41.2323 27.2044 41.579C26.849 41.9257 26.6714 42.4543 26.6714 43.165V44.127C26.6714 44.8377 26.849 45.3663 27.2044 45.713C27.5597 46.0597 28.019 46.233 28.5824 46.233ZM33.3218 47V40.292H34.3618V41.527H34.4268C34.5481 41.2063 34.7648 40.9203 35.0768 40.669C35.3888 40.4177 35.8178 40.292 36.3638 40.292H36.7668V41.332H36.1558C35.5925 41.332 35.1505 41.4403 34.8298 41.657C34.5178 41.865 34.3618 42.1293 34.3618 42.45V47H33.3218ZM39.628 47C39.264 47 38.9867 46.9003 38.796 46.701C38.614 46.493 38.523 46.2243 38.523 45.895V41.202H37.418V40.292H38.042C38.2673 40.292 38.419 40.2487 38.497 40.162C38.5837 40.0667 38.627 39.9063 38.627 39.681V38.433H39.563V40.292H41.032V41.202H39.563V46.09H40.928V47H39.628Z" fill="#6A54FF"/>
<path opacity="0.7" d="M15.02 90.74V86.78H11.34V85H15.02V81.04H16.98V85H20.66V86.78H16.98V90.74H15.02ZM22.9522 92V90.12H26.8722V79.68H26.7122L23.4722 83.14L22.0922 81.9L25.6522 78.04H29.0922V90.12H32.4922V92H22.9522ZM39.5644 92V89.28H33.0844V87.34L38.7444 78.04H41.7044V87.5H43.6044V89.28H41.7044V92H39.5644ZM35.0044 87.5H39.5644V80.1H39.4244L35.0044 87.5ZM45.3366 92V90.12H49.2566V79.68H49.0966L45.8566 83.14L44.4766 81.9L48.0366 78.04H51.4766V90.12H54.8766V92H45.3366ZM58.3887 92L68.0687 78.04H70.0887L60.4087 92H58.3887ZM59.2887 85.72C58.2087 85.72 57.3821 85.3867 56.8087 84.72C56.2354 84.04 55.9487 83.0533 55.9487 81.76C55.9487 80.4667 56.2354 79.4867 56.8087 78.82C57.3821 78.14 58.2087 77.8 59.2887 77.8C60.3687 77.8 61.1954 78.14 61.7687 78.82C62.3421 79.4867 62.6287 80.4667 62.6287 81.76C62.6287 83.0533 62.3421 84.04 61.7687 84.72C61.1954 85.3867 60.3687 85.72 59.2887 85.72ZM59.2887 84.38C60.2354 84.38 60.7087 83.6933 60.7087 82.32V81.2C60.7087 79.8267 60.2354 79.14 59.2887 79.14C58.3421 79.14 57.8687 79.8267 57.8687 81.2V82.32C57.8687 83.6933 58.3421 84.38 59.2887 84.38ZM69.1887 92.24C68.1087 92.24 67.2821 91.9067 66.7087 91.24C66.1354 90.56 65.8487 89.5733 65.8487 88.28C65.8487 86.9867 66.1354 86.0067 66.7087 85.34C67.2821 84.66 68.1087 84.32 69.1887 84.32C70.2687 84.32 71.0954 84.66 71.6687 85.34C72.2421 86.0067 72.5288 86.9867 72.5288 88.28C72.5288 89.5733 72.2421 90.56 71.6687 91.24C71.0954 91.9067 70.2687 92.24 69.1887 92.24ZM69.1887 90.9C70.1354 90.9 70.6088 90.2133 70.6088 88.84V87.72C70.6088 86.3467 70.1354 85.66 69.1887 85.66C68.2421 85.66 67.7687 86.3467 67.7687 87.72V88.84C67.7687 90.2133 68.2421 90.9 69.1887 90.9Z" fill="#6A54FF"/>
</g>
<g clip-path="url(#clip2_185_208)">
<rect x="124" y="30" width="176" height="104" rx="4" fill="#6A54FF"/>
<path d="M135.72 58V44.04H144.66V46.04H137.98V49.92H144.04V51.92H137.98V56H144.66V58H135.72ZM151.955 46.04V58H149.695V46.04H145.535V44.04H156.115V46.04H151.955ZM166.098 51.92H159.778V58H157.518V44.04H159.778V49.92H166.098V44.04H168.358V58H166.098V51.92ZM169.416 61.02L174.956 43.2H176.836L171.296 61.02H169.416ZM180.676 44.04V52.64C180.676 53.8267 180.902 54.72 181.356 55.32C181.809 55.92 182.582 56.22 183.676 56.22C184.769 56.22 185.542 55.92 185.996 55.32C186.449 54.72 186.676 53.8267 186.676 52.64V44.04H188.896V52.28C188.896 53.3067 188.802 54.1933 188.616 54.94C188.429 55.6867 188.129 56.3067 187.716 56.8C187.302 57.28 186.762 57.64 186.096 57.88C185.442 58.12 184.636 58.24 183.676 58.24C182.716 58.24 181.902 58.12 181.236 57.88C180.582 57.64 180.049 57.28 179.636 56.8C179.222 56.3067 178.922 55.6867 178.736 54.94C178.549 54.1933 178.456 53.3067 178.456 52.28V44.04H180.676ZM195.627 58.24C194.453 58.24 193.453 58.0267 192.627 57.6C191.813 57.1733 191.113 56.6 190.527 55.88L192.087 54.42C192.58 55.02 193.12 55.4733 193.707 55.78C194.307 56.0867 194.987 56.24 195.747 56.24C196.64 56.24 197.313 56.04 197.767 55.64C198.22 55.24 198.447 54.7 198.447 54.02C198.447 53.4733 198.287 53.04 197.967 52.72C197.647 52.4 197.08 52.16 196.267 52L195.027 51.78C193.667 51.5267 192.647 51.08 191.967 50.44C191.287 49.8 190.947 48.92 190.947 47.8C190.947 47.1867 191.06 46.6333 191.287 46.14C191.527 45.6333 191.853 45.2133 192.267 44.88C192.693 44.5333 193.207 44.2667 193.807 44.08C194.407 43.8933 195.08 43.8 195.827 43.8C196.88 43.8 197.793 43.9867 198.567 44.36C199.34 44.72 200 45.2467 200.547 45.94L198.967 47.34C198.607 46.8733 198.167 46.5 197.647 46.22C197.127 45.94 196.48 45.8 195.707 45.8C194.907 45.8 194.287 45.96 193.847 46.28C193.407 46.6 193.187 47.0667 193.187 47.68C193.187 48.2667 193.367 48.7067 193.727 49C194.087 49.28 194.647 49.4933 195.407 49.64L196.647 49.9C198.047 50.1667 199.067 50.62 199.707 51.26C200.36 51.9 200.687 52.78 200.687 53.9C200.687 54.5533 200.573 55.1467 200.347 55.68C200.12 56.2133 199.787 56.6733 199.347 57.06C198.92 57.4333 198.393 57.7267 197.767 57.94C197.14 58.14 196.427 58.24 195.627 58.24ZM202.6 44.04H207.54C208.433 44.04 209.24 44.1867 209.96 44.48C210.693 44.7733 211.313 45.2133 211.82 45.8C212.34 46.3733 212.74 47.1 213.02 47.98C213.3 48.8467 213.44 49.86 213.44 51.02C213.44 52.18 213.3 53.2 213.02 54.08C212.74 54.9467 212.34 55.6733 211.82 56.26C211.313 56.8333 210.693 57.2667 209.96 57.56C209.24 57.8533 208.433 58 207.54 58H202.6V44.04ZM207.54 56C208.58 56 209.42 55.6733 210.06 55.02C210.7 54.3667 211.02 53.4067 211.02 52.14V49.9C211.02 48.6333 210.7 47.6733 210.06 47.02C209.42 46.3667 208.58 46.04 207.54 46.04H204.86V56H207.54ZM220.105 46.04V58H217.845V46.04H213.685V44.04H224.265V46.04H220.105Z" fill="white"/>
<path d="M139.02 120.74V116.78H135.34V115H139.02V111.04H140.98V115H144.66V116.78H140.98V120.74H139.02ZM146.952 122V120.12H150.872V109.68H150.712L147.472 113.14L146.092 111.9L149.652 108.04H153.092V120.12H156.492V122H146.952ZM158.144 122V120.12H162.064V109.68H161.904L158.664 113.14L157.284 111.9L160.844 108.04H164.284V120.12H167.684V122H158.144ZM173.617 122.24C172.843 122.24 172.15 122.113 171.537 121.86C170.937 121.607 170.423 121.247 169.997 120.78C169.583 120.3 169.263 119.727 169.037 119.06C168.81 118.393 168.697 117.64 168.697 116.8C168.697 115.787 168.85 114.833 169.157 113.94C169.463 113.047 169.857 112.227 170.337 111.48C170.817 110.733 171.35 110.073 171.937 109.5C172.537 108.913 173.123 108.427 173.697 108.04H176.697C175.91 108.613 175.203 109.167 174.577 109.7C173.95 110.233 173.403 110.78 172.937 111.34C172.47 111.9 172.077 112.493 171.757 113.12C171.45 113.747 171.21 114.433 171.037 115.18L171.177 115.22C171.323 114.94 171.49 114.68 171.677 114.44C171.877 114.187 172.103 113.967 172.357 113.78C172.623 113.593 172.923 113.447 173.257 113.34C173.59 113.233 173.977 113.18 174.417 113.18C175.003 113.18 175.543 113.28 176.037 113.48C176.543 113.68 176.977 113.973 177.337 114.36C177.71 114.733 177.997 115.187 178.197 115.72C178.41 116.253 178.517 116.847 178.517 117.5C178.517 118.207 178.397 118.853 178.157 119.44C177.93 120.013 177.603 120.507 177.177 120.92C176.75 121.333 176.23 121.66 175.617 121.9C175.017 122.127 174.35 122.24 173.617 122.24ZM173.617 120.4C174.43 120.4 175.063 120.187 175.517 119.76C175.97 119.32 176.197 118.68 176.197 117.84V117.56C176.197 116.72 175.97 116.087 175.517 115.66C175.063 115.22 174.43 115 173.617 115C172.803 115 172.17 115.22 171.717 115.66C171.263 116.087 171.037 116.72 171.037 117.56V117.84C171.037 118.68 171.263 119.32 171.717 119.76C172.17 120.187 172.803 120.4 173.617 120.4ZM182.389 122L192.069 108.04H194.089L184.409 122H182.389ZM183.289 115.72C182.209 115.72 181.382 115.387 180.809 114.72C180.235 114.04 179.949 113.053 179.949 111.76C179.949 110.467 180.235 109.487 180.809 108.82C181.382 108.14 182.209 107.8 183.289 107.8C184.369 107.8 185.195 108.14 185.769 108.82C186.342 109.487 186.629 110.467 186.629 111.76C186.629 113.053 186.342 114.04 185.769 114.72C185.195 115.387 184.369 115.72 183.289 115.72ZM183.289 114.38C184.235 114.38 184.709 113.693 184.709 112.32V111.2C184.709 109.827 184.235 109.14 183.289 109.14C182.342 109.14 181.869 109.827 181.869 111.2V112.32C181.869 113.693 182.342 114.38 183.289 114.38ZM193.189 122.24C192.109 122.24 191.282 121.907 190.709 121.24C190.135 120.56 189.849 119.573 189.849 118.28C189.849 116.987 190.135 116.007 190.709 115.34C191.282 114.66 192.109 114.32 193.189 114.32C194.269 114.32 195.095 114.66 195.669 115.34C196.242 116.007 196.529 116.987 196.529 118.28C196.529 119.573 196.242 120.56 195.669 121.24C195.095 121.907 194.269 122.24 193.189 122.24ZM193.189 120.9C194.135 120.9 194.609 120.213 194.609 118.84V117.72C194.609 116.347 194.135 115.66 193.189 115.66C192.242 115.66 191.769 116.347 191.769 117.72V118.84C191.769 120.213 192.242 120.9 193.189 120.9Z" fill="white"/>
<path opacity="0.6" d="M137.757 77.156C137.02 77.156 136.392 77.0173 135.872 76.74C135.352 76.454 134.91 76.064 134.546 75.57L135.352 74.894C135.673 75.3187 136.028 75.6437 136.418 75.869C136.808 76.0857 137.267 76.194 137.796 76.194C138.446 76.194 138.94 76.038 139.278 75.726C139.625 75.414 139.798 74.998 139.798 74.478C139.798 74.0447 139.668 73.711 139.408 73.477C139.148 73.243 138.719 73.0567 138.121 72.918L137.38 72.749C136.548 72.5583 135.911 72.2723 135.469 71.891C135.036 71.501 134.819 70.955 134.819 70.253C134.819 69.8543 134.893 69.499 135.04 69.187C135.187 68.875 135.391 68.615 135.651 68.407C135.92 68.199 136.236 68.043 136.6 67.939C136.973 67.8263 137.38 67.77 137.822 67.77C138.507 67.77 139.092 67.8957 139.577 68.147C140.071 68.3983 140.487 68.7667 140.825 69.252L140.006 69.85C139.755 69.5033 139.451 69.2303 139.096 69.031C138.741 68.8317 138.299 68.732 137.77 68.732C137.189 68.732 136.73 68.8577 136.392 69.109C136.063 69.3517 135.898 69.72 135.898 70.214C135.898 70.6473 136.037 70.9767 136.314 71.202C136.6 71.4187 137.029 71.592 137.601 71.722L138.342 71.891C139.235 72.0903 139.88 72.3937 140.279 72.801C140.678 73.2083 140.877 73.75 140.877 74.426C140.877 74.842 140.803 75.219 140.656 75.557C140.517 75.895 140.314 76.181 140.045 76.415C139.776 76.649 139.447 76.831 139.057 76.961C138.676 77.091 138.242 77.156 137.757 77.156ZM142.659 67.38H143.699V71.384H143.751C143.915 71.0027 144.145 70.6993 144.44 70.474C144.743 70.2487 145.146 70.136 145.649 70.136C146.342 70.136 146.888 70.3613 147.287 70.812C147.694 71.254 147.898 71.8823 147.898 72.697V77H146.858V72.879C146.858 71.6743 146.351 71.072 145.337 71.072C145.129 71.072 144.925 71.098 144.726 71.15C144.535 71.202 144.362 71.28 144.206 71.384C144.05 71.488 143.924 71.6223 143.829 71.787C143.742 71.943 143.699 72.1293 143.699 72.346V77H142.659V67.38ZM152.582 77.156C152.132 77.156 151.72 77.0737 151.347 76.909C150.975 76.7443 150.654 76.5103 150.385 76.207C150.125 75.895 149.922 75.5267 149.774 75.102C149.627 74.6687 149.553 74.1833 149.553 73.646C149.553 73.1173 149.627 72.6363 149.774 72.203C149.922 71.7697 150.125 71.4013 150.385 71.098C150.654 70.786 150.975 70.5477 151.347 70.383C151.72 70.2183 152.132 70.136 152.582 70.136C153.033 70.136 153.44 70.2183 153.804 70.383C154.177 70.5477 154.498 70.786 154.766 71.098C155.035 71.4013 155.243 71.7697 155.39 72.203C155.538 72.6363 155.611 73.1173 155.611 73.646C155.611 74.1833 155.538 74.6687 155.39 75.102C155.243 75.5267 155.035 75.895 154.766 76.207C154.498 76.5103 154.177 76.7443 153.804 76.909C153.44 77.0737 153.033 77.156 152.582 77.156ZM152.582 76.233C153.146 76.233 153.605 76.0597 153.96 75.713C154.316 75.3663 154.493 74.8377 154.493 74.127V73.165C154.493 72.4543 154.316 71.9257 153.96 71.579C153.605 71.2323 153.146 71.059 152.582 71.059C152.019 71.059 151.56 71.2323 151.204 71.579C150.849 71.9257 150.671 72.4543 150.671 73.165V74.127C150.671 74.8377 150.849 75.3663 151.204 75.713C151.56 76.0597 152.019 76.233 152.582 76.233ZM157.322 77V70.292H158.362V71.527H158.427C158.548 71.2063 158.765 70.9203 159.077 70.669C159.389 70.4177 159.818 70.292 160.364 70.292H160.767V71.332H160.156C159.592 71.332 159.15 71.4403 158.83 71.657C158.518 71.865 158.362 72.1293 158.362 72.45V77H157.322ZM163.628 77C163.264 77 162.987 76.9003 162.796 76.701C162.614 76.493 162.523 76.2243 162.523 75.895V71.202H161.418V70.292H162.042C162.267 70.292 162.419 70.2487 162.497 70.162C162.584 70.0667 162.627 69.9063 162.627 69.681V68.433H163.563V70.292H165.032V71.202H163.563V76.09H164.928V77H163.628Z" fill="white"/>
</g>
<path opacity="0.7" d="M180 5L201 26" stroke="#6A54FF"/>
<path opacity="0.7" d="M99 108L120 129" stroke="#6A54FF"/>
</g>
<defs>
<clipPath id="clip0_185_208">
<rect width="300" height="134" fill="white"/>
</clipPath>
<clipPath id="clip1_185_208">
<rect width="176" height="104" fill="white"/>
</clipPath>
<clipPath id="clip2_185_208">
<rect width="176" height="104" fill="white" transform="translate(124 30)"/>
</clipPath>
</defs>
</svg>
