<svg width="80" height="34" viewBox="0 0 80 34" fill="none" xmlns="http://www.w3.org/2000/svg">
<path d="M9.8665 18.0105H3.38331L0 33.5708H6.98353C12.0083 33.5708 13.4997 30.8045 13.5174 28.6218C13.5327 26.7199 12.4532 25.9419 11.4339 25.607L11.4672 25.4341C12.8963 25.1207 14.6303 23.9537 14.6497 21.5548C14.6684 19.2424 12.8792 18.0105 9.8665 18.0105ZM4.60329 30.3939L5.2883 27.3035H8.04552C9.09944 27.3035 9.72404 27.7357 9.71679 28.6326C9.70928 29.5619 8.99994 30.3939 7.50955 30.3939H4.60329ZM5.974 24.1266L6.6152 21.1874H9.15951C10.2134 21.1874 10.7957 21.5872 10.7888 22.4409C10.7816 23.3269 10.1152 24.1266 8.59283 24.1266H5.974Z" fill="white"/>
<path d="M16.6724 18.0105L13.2891 33.5708H24.4374L25.1779 30.1994H18.0749L20.7177 18.0105H16.6724Z" fill="white"/>
<path d="M32.3035 18.0105L24.6752 33.2466L24.6087 33.5708H28.4518L29.9471 30.3291H34.4928L34.5837 33.5708H38.2671L38.3335 33.2466L37.3282 18.0105H32.3035ZM31.4638 27.0657L34.0859 21.3927H34.2563L34.402 27.0657H31.4638Z" fill="white"/>
<path d="M45.9865 18.0105H41.6111L38.2278 33.5708H43.6145C50.3958 33.5708 52.619 28.5137 52.6539 24.1914C52.6863 20.1825 50.0531 18.0105 45.9865 18.0105ZM42.9278 30.2858L44.8634 21.2955H45.8322C47.7058 21.2955 48.7726 22.3328 48.7566 24.3103C48.7333 27.1954 47.2818 30.2858 44.1733 30.2858H42.9278Z" fill="white"/>
<path d="M54.9002 18.0105L51.5169 33.5708H63.1206L63.8063 30.3939H56.1628L56.8369 27.3251H63.2669L63.9526 24.1482H57.5333L58.1747 21.1874H65.6692L66.3549 18.0105H54.9002Z" fill="white"/>
<path d="M16.1056 0L15.3867 3.32818H19.794L17.1296 15.5603H21.1323L23.7968 3.32818H28.2041L28.9229 0H16.1056Z" fill="white"/>
<path d="M35.7075 0H29.4159L26.0326 15.5603H29.9502L31.2771 9.44424H31.49L34.645 15.5603H38.6158L38.6823 15.2361L35.5033 9.46585C39.3809 9.14168 40.8148 6.90488 40.8368 4.19264C40.8584 1.51281 38.8799 0 35.7075 0ZM31.8963 6.59152L32.6478 3.17689H35.1496C36.3632 3.17689 37.0512 3.66315 37.0435 4.61406C37.0355 5.60819 36.3249 6.59152 34.5577 6.59152H31.8963Z" fill="white"/>
<path d="M45.5581 0L37.9298 15.2361L37.8633 15.5603H41.7063L43.2016 12.3186H47.7473L47.8382 15.5603H51.5216L51.5881 15.2361L50.5828 0H45.5581ZM44.7184 9.05523L47.3405 3.3822H47.5108L47.6566 9.05523H44.7184Z" fill="white"/>
<path d="M59.241 0H54.8657L51.4823 15.5603H56.869C63.6503 15.5603 65.8735 10.5032 65.9085 6.1809C65.9409 2.17196 63.3076 0 59.241 0ZM56.1823 12.2753L58.118 3.28495H59.0867C60.9604 3.28495 62.0272 4.32231 62.0112 6.29976C61.9879 9.1849 60.5364 12.2753 57.4279 12.2753H56.1823Z" fill="white"/>
<path d="M68.1547 0L64.7714 15.5603H76.3752L77.0609 12.3834H69.4173L70.0915 9.31457H76.5215L77.2071 6.13767H70.7878L71.4292 3.17689H78.9237L79.6094 0H68.1547Z" fill="white"/>
</svg>
